<svg xmlns="http://www.w3.org/2000/svg" width="182.000000" height="182.000000" fill="none" viewBox="0 0 182 182"><path id="Frame 1171276514" d="M0 0H182V182H0z"/><path id="Star 1" fill="#d3a168" fill-rule="nonzero" d="M84.4141 4.59917C88.3701 1.83654 93.6299 1.83654 97.5859 4.59917L97.5859 4.59917C100.617 6.71561 104.48 7.24659 107.969 6.0263L107.969 6.0263C112.524 4.43343 117.588 5.85249 120.652 9.58L120.652 9.58C123 12.4356 126.576 13.9892 130.265 13.7555L130.265 13.7555C135.081 13.4506 139.575 16.1834 141.52 20.5994L141.52 20.5994C143.009 23.9824 146.034 26.4433 149.65 27.2136L149.65 27.2136C154.369 28.2192 157.959 32.0632 158.64 36.84L158.64 36.84C159.162 40.4995 161.411 43.6853 164.684 45.4025L164.684 45.4025C168.957 47.644 171.377 52.314 170.744 57.0975L170.744 57.0975C170.259 60.7621 171.565 64.4364 174.254 66.9731L174.254 66.9731C177.763 70.2843 178.834 75.434 176.934 79.8694L176.934 79.8694C175.478 83.2673 175.744 87.1576 177.649 90.3257L177.649 90.3257C180.135 94.461 179.776 99.7085 176.75 103.467L176.75 103.467C174.432 106.346 173.638 110.164 174.618 113.728L174.618 113.728C175.896 118.381 174.135 123.337 170.207 126.139L170.207 126.139C167.198 128.286 165.403 131.749 165.385 135.445L165.385 135.445C165.36 140.27 162.327 144.567 157.789 146.206L157.789 146.206C154.312 147.462 151.651 150.311 150.635 153.866L150.635 153.866C149.31 158.505 145.23 161.825 140.418 162.178L140.418 162.178C136.731 162.449 133.399 164.475 131.463 167.624L131.463 167.624C128.935 171.734 124.111 173.829 119.382 172.872L119.382 172.872C115.759 172.138 112.004 173.19 109.289 175.699L109.289 175.699C105.746 178.975 100.536 179.691 96.2404 177.493L96.2404 177.493C92.9497 175.809 89.0503 175.809 85.7596 177.493L85.7596 177.493C81.4643 179.691 76.2535 178.975 72.7105 175.699L72.7105 175.699C69.9963 173.19 66.2414 172.138 62.6185 172.872L62.6185 172.872C57.8893 173.829 53.065 171.734 50.5372 167.624L50.5372 167.624C48.6006 164.475 45.2688 162.449 41.5822 162.178L41.5822 162.178C36.77 161.825 32.69 158.505 31.3647 153.866L31.3647 153.866C30.3495 150.311 27.6879 147.462 24.2111 146.206L24.2111 146.206C19.6727 144.567 16.6395 140.27 16.6152 135.445L16.6152 135.445C16.5965 131.749 14.8025 128.286 11.7933 126.139L11.7933 126.139C7.86544 123.337 6.10407 118.381 7.3824 113.728L7.3824 113.728C8.36172 110.164 7.56835 106.346 5.25003 103.467L5.25003 103.467C2.22387 99.7085 1.86493 94.461 4.35115 90.3257L4.35115 90.3257C6.25584 87.1576 6.52195 83.2673 5.06639 79.8694L5.06639 79.8694C3.16641 75.434 4.23654 70.2843 7.74626 66.9731L7.74626 66.9731C10.435 64.4364 11.7409 60.7621 11.256 57.0975L11.256 57.0975C10.6232 52.314 13.043 47.644 17.3159 45.4025L17.3159 45.4025C20.5894 43.6853 22.8381 40.4995 23.36 36.84L23.36 36.84C24.0411 32.0632 27.6312 28.2192 32.3504 27.2136L32.3504 27.2136C35.9657 26.4433 38.9906 23.9824 40.4804 20.5994L40.4804 20.5994C42.4251 16.1834 46.9191 13.4506 51.7346 13.7555L51.7346 13.7555C55.4238 13.9892 59.0004 12.4356 61.3477 9.57999L61.3477 9.57999C64.4116 5.85249 69.4763 4.43343 74.031 6.0263L74.031 6.0263C77.5203 7.24659 81.3834 6.71561 84.4141 4.59917L84.4141 4.59917Z"/><path id="Работаем по всей территории РФ • Работаем по всей территории РФ •" fill="#fff" fill-rule="evenodd" d="M94.857 31.2641C94.2825 31.226 93.7997 31.0737 93.4087 30.807C93.018 30.5366 92.7242 30.1579 92.5275 29.6708C92.345 29.2187 92.2538 28.6803 92.2538 28.0554C92.2538 28.0069 92.2543 27.9579 92.2554 27.9084C92.2596 27.5904 92.2845 27.2419 92.3301 26.8629Q92.4041 26.2946 92.5204 25.7738C92.6017 25.4268 92.6944 25.1422 92.7983 24.9201C92.9162 24.6539 93.0742 24.4106 93.2723 24.1904C93.4743 23.9666 93.6964 23.7852 93.9386 23.6462C94.1849 23.5 94.4573 23.3909 94.7557 23.3188C95.0541 23.2468 95.3644 23.1961 95.6866 23.1667C96.0128 23.1338 96.3386 23.1083 96.6639 23.0903Q97.1522 23.0577 97.5967 23L97.6439 23.9012Q97.33 23.9498 96.9044 23.9749C96.6208 23.9879 96.3257 24.0059 96.019 24.0287Q95.5645 24.0634 95.1408 24.1504Q94.723 24.2321 94.4129 24.4045C94.1093 24.5623 93.868 24.8118 93.689 25.1529C93.514 25.4906 93.3964 25.8747 93.3364 26.3053C93.591 25.9612 93.9093 25.7163 94.2913 25.5707C94.6734 25.4251 95.0748 25.3648 95.4955 25.3899C96.0401 25.4224 96.502 25.5773 96.881 25.8544C97.2603 26.1279 97.5418 26.4909 97.7255 26.9436C97.884 27.3267 97.9633 27.7494 97.9633 28.2115C97.9633 28.2956 97.9607 28.381 97.9555 28.4677C97.9193 29.0644 97.7675 29.5794 97.5 30.0126C97.2325 30.4458 96.8716 30.7724 96.4172 30.9923C95.9665 31.2124 95.4465 31.303 94.857 31.2641ZM79.1732 31.9982L78.0457 24.0057L81.2264 23.5633C81.3047 23.5524 81.3984 23.5432 81.5075 23.5355C81.6161 23.5242 81.722 23.5208 81.8252 23.5253Q82.4934 23.5342 82.9835 23.817C83.314 24.0049 83.5786 24.2643 83.7772 24.5951C83.9754 24.9222 84.1044 25.2985 84.1645 25.724C84.1862 25.8783 84.1971 26.0293 84.1971 26.177C84.1971 26.4332 84.1644 26.6795 84.0989 26.9159C83.9989 27.2845 83.8163 27.606 83.5511 27.8806C83.289 28.151 82.9465 28.3495 82.5237 28.4762C82.4251 28.505 82.3223 28.5307 82.2153 28.5531C82.1083 28.5755 82.0156 28.5922 81.9374 28.6031L79.7517 28.907L80.1682 31.8598L79.1732 31.9982ZM79.6194 27.969L81.7715 27.6697C81.8423 27.6599 81.9219 27.645 82.0103 27.6252C82.1024 27.6048 82.1882 27.5797 82.2676 27.5498C82.5163 27.4548 82.7099 27.3185 82.8482 27.1408Q82.9753 26.9774 83.0504 26.7929Q83.1007 26.6692 83.1277 26.536Q83.1666 26.3384 83.1666 26.1423Q83.1666 26.1037 83.1651 26.0651L83.1651 26.0648Q83.1611 25.965 83.1471 25.8655C83.1158 25.6435 83.048 25.4322 82.9437 25.2317C82.8389 25.0274 82.6933 24.8571 82.5069 24.7208C82.3242 24.584 82.1003 24.5057 81.8354 24.486C81.7502 24.4752 81.6608 24.4744 81.5672 24.4837Q81.4314 24.4912 81.3252 24.506L79.1731 24.8053L79.6194 27.969ZM87.7917 31.2177C87.3367 31.236 86.9517 31.1692 86.6367 31.0174C86.3253 30.8616 86.0851 30.6507 85.916 30.3845C85.7507 30.1182 85.6615 29.8226 85.6482 29.4978C85.6468 29.4646 85.6462 29.4318 85.6462 29.3995C85.6462 29.123 85.6958 28.8789 85.7951 28.6674C85.9095 28.4272 86.0746 28.2261 86.2901 28.0641C86.5056 27.8983 86.7656 27.7645 87.0703 27.6624C87.3566 27.5724 87.6772 27.4922 88.0321 27.4218C88.3906 27.3475 88.7531 27.2787 89.1196 27.2153C89.3518 27.1752 89.5742 27.1362 89.7869 27.0983C89.7566 26.6402 89.6336 26.2994 89.4177 26.0759C89.1816 25.8274 88.7853 25.7143 88.2288 25.7367C87.8603 25.7516 87.5404 25.8486 87.269 26.0278C87.0013 26.2031 86.8186 26.4797 86.7211 26.8576L85.7562 26.6103C85.8812 26.0743 86.1481 25.6466 86.5569 25.3273C86.9656 25.0079 87.5141 24.8344 88.2021 24.8067C88.7548 24.7844 89.2326 24.8643 89.6355 25.0463C90.042 25.2243 90.3398 25.5078 90.5289 25.8965C90.623 26.0797 90.6858 26.281 90.7174 26.5003C90.7488 26.716 90.7694 26.9432 90.7791 27.1822L90.9319 30.923L90.0408 30.9588L90.0023 30.017Q89.7874 30.3733 89.4858 30.626Q89.386 30.7097 89.2766 30.7821C88.877 31.0487 88.382 31.1939 87.7917 31.2177ZM101.553 31.9989C100.955 31.9021 100.461 31.6839 100.07 31.3444C99.6837 31.0054 99.4125 30.5792 99.2566 30.0656Q99.1148 29.5983 99.1148 29.0746Q99.1148 28.7349 99.1745 28.3714C99.2774 27.7445 99.4865 27.2143 99.8017 26.7807C100.117 26.3472 100.513 26.0347 100.991 25.8432C101.469 25.648 102.001 25.5979 102.588 25.6929C103.19 25.7903 103.686 26.0088 104.076 26.3483Q104.301 26.5413 104.473 26.7733Q104.75 27.1469 104.891 27.6216C104.986 27.9313 105.033 28.2606 105.033 28.6095Q105.033 28.9476 104.974 29.3102Q104.82 30.245 104.352 30.9018C104.041 31.3359 103.646 31.6524 103.167 31.8513C102.689 32.0465 102.151 32.0957 101.553 31.9989ZM94.9762 30.3223C95.5659 30.3575 96.0239 30.2033 96.35 29.8597C96.6764 29.5124 96.8579 29.0366 96.8945 28.4324C96.8988 28.3624 96.9009 28.2939 96.9009 28.2271C96.9009 27.7026 96.7705 27.2749 96.5097 26.944C96.2158 26.5671 95.7834 26.3616 95.2125 26.3275Q94.5385 26.2873 94.0897 26.5857Q93.9607 26.6714 93.8502 26.7852C93.5245 27.1213 93.3429 27.599 93.3054 28.2181C93.301 28.2906 93.2988 28.3613 93.2988 28.4304Q93.2988 29.2174 93.6787 29.7114C93.9652 30.0841 94.3977 30.2878 94.9762 30.3223ZM107.122 32.9551L108.428 27.9762L106.374 27.445L106.604 26.5664L111.684 27.8802L111.454 28.7588L109.4 28.2276L108.094 33.2065L107.122 32.9551ZM101.706 31.064C102.33 31.165 102.828 31.0337 103.201 30.6699C103.573 30.3062 103.813 29.7962 103.921 29.1397Q103.973 28.8226 103.973 28.5388C103.973 28.1242 103.89 27.763 103.723 27.4552C103.481 27.0034 103.051 26.7275 102.435 26.6277C102.015 26.5598 101.654 26.5979 101.352 26.7421C101.05 26.8863 100.805 27.1135 100.617 27.4238Q100.335 27.8891 100.227 28.5419Q100.176 28.8539 100.176 29.1349Q100.176 29.7607 100.43 30.2328C100.676 30.689 101.101 30.966 101.706 31.064ZM87.9099 30.3771C88.2708 30.3626 88.5803 30.2866 88.8383 30.149C89.1 30.0076 89.3074 29.8291 89.4605 29.6136Q89.6276 29.3741 89.7037 29.1085L89.7038 29.1083Q89.7322 29.0092 89.748 28.9065C89.7918 28.7368 89.8137 28.5514 89.8137 28.3503C89.8137 28.3275 89.8134 28.3045 89.8128 28.2812C89.8118 28.1536 89.8102 28.0425 89.8082 27.9478C89.6029 27.9839 89.3998 28.0191 89.1991 28.0535C88.8849 28.1073 88.5878 28.1641 88.3078 28.224C88.0276 28.2802 87.776 28.3445 87.553 28.4171C87.3897 28.476 87.2364 28.5495 87.0931 28.6375C86.9536 28.7254 86.8414 28.8365 86.7565 28.9708C86.6823 29.0898 86.6452 29.2338 86.6452 29.4028C86.6452 29.419 86.6456 29.4354 86.6462 29.452C86.6529 29.6163 86.7007 29.7714 86.7895 29.9174C86.8821 30.0633 87.0187 30.1793 87.1992 30.2655C87.3835 30.3516 87.6204 30.3888 87.9099 30.3771ZM112.535 34.773C112.107 34.6181 111.777 34.411 111.544 34.1516C111.315 33.89 111.174 33.6042 111.119 33.2942C111.104 33.1978 111.096 33.1016 111.096 33.0056C111.096 32.7939 111.134 32.5831 111.211 32.373C111.321 32.0746 111.472 31.8371 111.665 31.6604C111.863 31.4814 112.093 31.3578 112.354 31.2893C112.617 31.2174 112.909 31.1918 113.23 31.2124C113.529 31.2373 113.856 31.2841 114.211 31.353C114.571 31.4197 114.933 31.4929 115.296 31.5727C115.526 31.6232 115.747 31.6711 115.958 31.7164C116.041 31.471 116.083 31.249 116.083 31.0504C116.083 30.8968 116.058 30.7571 116.008 30.6314C115.885 30.3124 115.562 30.0582 115.039 29.8688C114.692 29.7434 114.359 29.7123 114.039 29.7756C113.725 29.8367 113.45 30.0235 113.215 30.3362L112.417 29.7432C112.738 29.2947 113.149 28.9999 113.649 28.8588C114.149 28.7178 114.723 28.7644 115.37 28.9986C115.89 29.1867 116.301 29.4409 116.604 29.7613C116.912 30.0795 117.079 30.4541 117.105 30.8851C117.109 30.9333 117.111 30.9818 117.111 31.0306C117.111 31.1891 117.09 31.3504 117.048 31.5147C116.994 31.726 116.926 31.9439 116.844 32.1686L115.552 35.686L114.714 35.3828L115.04 34.4972C114.742 34.7176 114.421 34.8621 114.075 34.9307C113.604 35.0265 113.09 34.9739 112.535 34.773ZM71.9725 31.5642C71.7163 31.6394 71.466 31.6486 71.2215 31.5917C70.9806 31.5338 70.7671 31.4231 70.5811 31.2595C70.3976 31.0913 70.268 30.88 70.1923 30.6256C70.1506 30.4856 70.1298 30.3477 70.1298 30.2121C70.1298 30.1011 70.1437 29.9916 70.1715 29.8836C70.237 29.6423 70.3556 29.4341 70.5271 29.2591C70.7012 29.0794 70.9164 28.952 71.1726 28.8768C71.4108 28.8069 71.6485 28.8014 71.8858 28.8604C72.1221 28.9157 72.3301 29.0281 72.51 29.1974Q72.5863 29.2673 72.6501 29.3471L72.6502 29.3472Q72.8167 29.5555 72.8988 29.8313C72.9405 29.9713 72.9613 30.1091 72.9613 30.2448C72.9613 30.3557 72.9474 30.4652 72.9195 30.5733C72.8602 30.8089 72.747 31.0155 72.5802 31.193C72.4133 31.3706 72.2107 31.4943 71.9725 31.5642ZM60.6913 38.4406L60.1807 37.466C59.8432 37.7204 59.4773 37.8883 59.0831 37.9698C58.6922 38.0495 58.299 38.0399 57.9036 37.9409C57.5097 37.8369 57.1345 37.6348 56.7779 37.3346C56.4213 37.0344 56.1102 36.6308 55.8445 36.1236C55.5771 35.6131 55.422 35.1268 55.3792 34.6646Q55.3631 34.4963 55.3631 34.3355Q55.3631 33.8289 55.5228 33.3964C55.6647 33.0114 55.8808 32.6829 56.1709 32.4109C56.4627 32.1339 56.8104 31.9312 57.2139 31.8028L56.9404 31.2807L57.8268 30.8229L58.1003 31.345C58.4378 31.0906 58.8046 30.9244 59.2006 30.8462C59.5948 30.7648 59.9897 30.7777 60.3852 30.8851C60.7824 30.9874 61.1602 31.1903 61.5185 31.4938C61.8751 31.7939 62.1871 32.1992 62.4546 32.7097C62.7202 33.2169 62.8745 33.7016 62.9173 34.1638C62.9271 34.2699 62.932 34.3739 62.932 34.4757C62.932 34.8176 62.8767 35.1356 62.766 35.4296C62.6239 35.8062 62.4062 36.1314 62.1127 36.4051C61.8192 36.6788 61.4706 36.8799 61.0671 37.0083L61.5776 37.9828L60.6913 38.4406ZM119.202 37.5497C118.663 37.2912 118.25 36.9474 117.961 36.5184C117.678 36.0877 117.527 35.6067 117.51 35.0755C117.509 35.047 117.509 35.0184 117.509 34.9898C117.509 34.4821 117.64 33.9591 117.902 33.421C118.192 32.8255 118.552 32.3637 118.984 32.0354C119.417 31.7038 119.887 31.5146 120.395 31.4678C120.908 31.4192 121.43 31.5225 121.962 31.7778C122.514 32.0429 122.922 32.3943 123.185 32.832C123.421 33.2209 123.54 33.6573 123.54 34.1411C123.54 34.2037 123.538 34.2671 123.534 34.3313C123.502 34.8932 123.316 35.4906 122.975 36.1235L122.507 35.8991L122.06 35.6844L118.765 34.1028Q118.54 34.6524 118.54 35.1243C118.54 35.2719 118.556 35.4138 118.589 35.55C118.709 36.0431 119.038 36.4189 119.576 36.6774C119.939 36.8514 120.294 36.9203 120.642 36.8839C120.99 36.8475 121.315 36.7112 121.619 36.4749L122.343 37.1897C121.895 37.5683 121.391 37.7872 120.832 37.8464C120.277 37.9039 119.734 37.805 119.202 37.5497ZM60.6321 36.1779C60.9651 36.0607 61.2301 35.8985 61.4271 35.6915C61.6223 35.4812 61.7556 35.2418 61.827 34.9733Q61.8908 34.7337 61.8908 34.4756Q61.8908 34.2998 61.8612 34.1154C61.8108 33.8087 61.7066 33.5045 61.5486 33.2029C61.3888 32.8979 61.1961 32.6353 60.9704 32.4149C60.7429 32.1913 60.4954 32.0264 60.2277 31.9204C59.9583 31.811 59.6792 31.772 59.3902 31.8033C59.1012 31.8346 58.8136 31.9537 58.5275 32.1604L60.6321 36.1779ZM112.966 34.0402C113.306 34.1631 113.621 34.2096 113.912 34.1798C114.209 34.1478 114.469 34.061 114.693 33.9194C114.918 33.7744 115.097 33.5926 115.23 33.374C115.347 33.2177 115.447 33.0331 115.529 32.8202C115.577 32.7018 115.618 32.5985 115.652 32.5101C115.449 32.466 115.247 32.4219 115.049 32.3779C114.737 32.309 114.441 32.2494 114.159 32.1991Q113.738 32.1183 113.387 32.0927C113.213 32.0855 113.043 32.0956 112.877 32.1229C112.715 32.1515 112.568 32.2119 112.438 32.304C112.313 32.394 112.218 32.5284 112.152 32.7075C112.113 32.8131 112.094 32.922 112.094 33.0342C112.094 33.0861 112.098 33.1387 112.106 33.192C112.136 33.3619 112.218 33.5207 112.352 33.6686C112.489 33.8178 112.694 33.9417 112.966 34.0402ZM122.388 34.9518Q122.574 34.4397 122.574 34.024C122.574 33.8978 122.561 33.7782 122.535 33.6653C122.433 33.2054 122.121 32.8503 121.599 32.5998C121.04 32.3315 120.528 32.3057 120.063 32.5225C119.714 32.6852 119.405 32.9745 119.135 33.3904L122.388 34.9518ZM59.7457 36.6357L57.6411 32.6182C57.3097 32.7304 57.0455 32.8942 56.8487 33.1096Q56.6994 33.2704 56.6004 33.4579Q56.5052 33.638 56.4566 33.8428C56.4208 33.9941 56.4029 34.151 56.4029 34.3136C56.4029 34.4447 56.4146 34.5795 56.4379 34.7179C56.49 35.0279 56.5976 35.3387 56.7609 35.6503C56.9224 35.9586 57.1151 36.2213 57.3391 36.4383C57.5631 36.6553 57.8055 36.8144 58.0663 36.9156Q58.2392 36.9806 58.4178 37.0055Q58.6483 37.0377 58.8882 37.0028C59.1753 36.9598 59.4612 36.8374 59.7457 36.6357ZM122.703 39.1395L125.95 34.0167L126.681 34.4735L126.12 39.6724L130.598 36.9215L131.329 37.3783L128.082 42.501L127.26 41.9875L129.392 38.6245L125.617 40.9606L125.168 40.6799L125.656 36.29L123.524 39.653L122.703 39.1395ZM52.453 43.5183L47.8671 36.8549L50.5188 35.0557C50.5841 35.0114 50.6639 34.9618 50.7582 34.9069C50.8505 34.8488 50.9438 34.799 51.0383 34.7575C51.44 34.5664 51.8294 34.4832 52.2065 34.508C52.5867 34.5306 52.9398 34.6463 53.2658 34.855C53.5896 35.0607 53.8736 35.3409 54.1178 35.6956C54.3598 36.0473 54.518 36.4129 54.5923 36.7924C54.6221 36.9407 54.637 37.088 54.637 37.2345C54.637 37.4579 54.6024 37.6791 54.533 37.8983C54.4192 38.2561 54.2012 38.5851 53.8791 38.8851C53.8037 38.9544 53.723 39.0227 53.6372 39.09C53.5513 39.1573 53.4758 39.2131 53.4105 39.2573L51.5883 40.4937L53.2826 42.9555L52.453 43.5183ZM51.0501 39.7117L52.8444 38.4943C52.9034 38.4542 52.9681 38.4058 53.0384 38.3491C53.1118 38.2902 53.1774 38.2299 53.2351 38.168C53.4155 37.9732 53.528 37.7657 53.5724 37.5455Q53.602 37.3983 53.602 37.2532C53.602 37.1277 53.5854 37.0035 53.5522 36.8804C53.4912 36.6593 53.397 36.4562 53.2696 36.2711C53.1422 36.086 52.9869 35.9267 52.8038 35.793C52.6185 35.6562 52.4119 35.5679 52.1839 35.528C51.959 35.486 51.7234 35.5146 51.4772 35.6138C51.3961 35.6416 51.3157 35.6804 51.2359 35.73C51.157 35.7744 51.0881 35.8167 51.0291 35.8567L49.2349 37.0741L51.0501 39.7117ZM131.139 44.7764L135.128 40.1992L138.905 43.4448L134.916 48.022L134.156 47.3692L137.521 43.5082L135.263 41.5682L131.898 45.4292L131.139 44.7764ZM45.3359 41.4193L49.451 45.885L48.7347 46.5357L45.7017 43.2443L46.3776 48.6771L45.7655 49.2332L41.6503 44.7675L42.3666 44.1168L45.3577 47.3627L44.7279 41.9716L45.3359 41.4193ZM137.688 51.1158C137.276 50.6743 137.022 50.2005 136.924 49.6944C136.893 49.5298 136.878 49.3653 136.878 49.2011C136.878 48.863 136.943 48.5257 137.075 48.1891C137.27 47.689 137.598 47.227 138.059 46.8032C138.529 46.3717 139.022 46.0814 139.539 45.932C140.056 45.7827 140.563 45.7783 141.058 45.919C141.556 46.0571 142.006 46.3428 142.41 46.7761C142.824 47.2203 143.08 47.6955 143.178 48.2016C143.211 48.3709 143.228 48.5399 143.228 48.7085C143.228 49.0414 143.162 49.3729 143.031 49.7031C142.839 50.2007 142.512 50.6614 142.051 51.0852C141.584 51.5141 141.092 51.8058 140.575 51.9605C140.06 52.1125 139.552 52.1208 139.052 51.9852C138.554 51.8471 138.099 51.5573 137.688 51.1158ZM40.085 46.3547L44.6674 50.3467L44.0271 51.0713L40.6497 48.1291L41.9201 53.4558L41.3729 54.0751L36.7904 50.0832L37.4307 49.3586L40.7615 52.2601L39.5415 46.9698L40.085 46.3547ZM138.388 50.4725C138.817 50.9331 139.291 51.1338 139.81 51.0744C140.329 51.0151 140.834 50.7595 141.326 50.3078C141.831 49.8433 142.127 49.3603 142.213 48.8586C142.229 48.7712 142.236 48.6846 142.236 48.5988C142.236 48.1889 142.061 47.7958 141.71 47.4194C141.421 47.1096 141.113 46.9192 140.786 46.8485C140.458 46.7777 140.124 46.8072 139.784 46.9369C139.443 47.0666 139.11 47.2811 138.784 47.5806C138.281 48.0425 137.986 48.5282 137.896 49.0377C137.881 49.1275 137.873 49.2163 137.873 49.3041C137.873 49.7148 138.044 50.1042 138.388 50.4725ZM141.98 55.8578L146.994 52.4141L148.471 54.5343C148.559 54.6603 148.645 54.8008 148.73 54.9559C148.821 55.1119 148.891 55.2615 148.94 55.4047C149.001 55.5716 149.031 55.7398 149.031 55.9092C149.031 56.0607 149.007 56.2132 148.958 56.3667C148.861 56.6928 148.643 56.9717 148.306 57.2034C148.117 57.333 147.933 57.4165 147.753 57.4538C147.575 57.4942 147.399 57.4972 147.224 57.4628C147.145 57.4486 147.068 57.4266 146.992 57.3968C146.917 57.367 146.849 57.3319 146.789 57.2915C146.845 57.4118 146.879 57.5496 146.891 57.7048C146.896 57.7529 146.899 57.8005 146.899 57.8476C146.899 58.0368 146.857 58.2184 146.773 58.3924C146.671 58.6129 146.485 58.8156 146.215 59.0005C145.875 59.2344 145.537 59.3464 145.2 59.3366C144.867 59.3246 144.559 59.2045 144.277 58.9761C144.159 58.8797 144.044 58.7635 143.931 58.6276C143.821 58.4895 143.719 58.3529 143.625 58.2177L141.98 55.8578ZM39.1679 57.336C38.8389 57.8005 38.4464 58.1111 37.9904 58.2678C37.842 58.3178 37.6908 58.3538 37.5367 58.3759L40.2132 60.2446L39.632 61.0652L32.429 56.0361L32.9453 55.3071L33.4991 55.6938C33.444 55.4903 33.4158 55.2833 33.4147 55.073L33.4147 55.0708C33.4147 54.5916 33.5789 54.1201 33.9074 53.6562C34.2321 53.1978 34.6267 52.8841 35.0914 52.7152C35.5551 52.5411 36.0483 52.504 36.5709 52.604C37.0935 52.704 37.6042 52.9281 38.1029 53.2762C38.6015 53.6244 38.9866 54.0257 39.2582 54.4803Q39.5518 54.9717 39.6322 55.4958Q39.6625 55.6936 39.6625 55.8959L39.6625 55.9068C39.6596 56.398 39.4947 56.8744 39.1679 57.336ZM38.3438 56.9113Q38.6649 56.458 38.6704 56.0008Q38.6705 55.9929 38.6705 55.9849Q38.6705 55.9553 38.6692 55.9258C38.6545 55.5958 38.5434 55.2784 38.336 54.9737C38.1255 54.6669 37.8432 54.3899 37.4892 54.1427C37.1383 53.8977 36.7834 53.7298 36.4244 53.6391C36.0676 53.5453 35.7282 53.5504 35.4061 53.6544C35.0862 53.7553 34.8072 53.9739 34.5691 54.3101C34.3521 54.6166 34.2435 54.9238 34.2435 55.2319C34.2435 55.2464 34.2438 55.2609 34.2443 55.2754C34.2519 55.5959 34.3605 55.907 34.5701 56.2086C34.7766 56.5081 35.0646 56.7868 35.434 57.0447C35.7972 57.2984 36.1577 57.4747 36.5154 57.5737C36.8722 57.6675 37.2079 57.6644 37.5225 57.5643C37.8341 57.4621 38.1079 57.2445 38.3438 56.9113ZM145.404 54.7329L146.265 55.9681C146.325 56.0541 146.392 56.1416 146.468 56.2305C146.547 56.3172 146.625 56.3864 146.702 56.4379C146.853 56.5431 147.011 56.5865 147.177 56.5682C147.348 56.5507 147.506 56.4921 147.651 56.3921C147.812 56.2816 147.927 56.148 147.997 55.9914C148.039 55.9027 148.06 55.8102 148.06 55.7138C148.06 55.641 148.048 55.566 148.024 55.4887C147.993 55.3649 147.936 55.2405 147.853 55.1154C147.776 54.9913 147.725 54.9124 147.702 54.8786L146.889 53.7125L145.404 54.7329ZM143.232 56.2251L144.266 57.7093C144.311 57.7738 144.37 57.8464 144.445 57.927C144.521 58.0107 144.594 58.0814 144.661 58.1394C144.819 58.2673 144.986 58.323 145.162 58.3065C145.34 58.2931 145.504 58.2354 145.652 58.1333C145.85 57.9973 145.973 57.8314 146.02 57.6358C146.036 57.5696 146.045 57.5029 146.045 57.4359C146.045 57.308 146.014 57.1786 145.953 57.0477C145.927 56.9704 145.888 56.8923 145.838 56.8134C145.789 56.7375 145.745 56.6704 145.704 56.612L144.722 55.2016L143.232 56.2251ZM35.4849 63.1878C35.1939 63.7154 34.8222 64.1054 34.3698 64.3578C33.9192 64.607 33.4241 64.7191 32.8845 64.694C32.3448 64.669 31.7994 64.5066 31.2482 64.2069C30.6871 63.9019 30.2531 63.5296 29.9463 63.0902C29.6395 62.6507 29.4747 62.1756 29.4518 61.6647Q29.4496 61.6211 29.4489 61.5774Q29.4485 61.5565 29.4485 61.5355Q29.4485 60.8305 29.8409 60.1191C30.1337 59.5882 30.5063 59.1965 30.9587 58.9441Q31.2043 58.805 31.4677 58.7223Q31.9265 58.5782 32.4391 58.6052C32.9754 58.6284 33.5192 58.7899 34.0704 59.0896C34.6282 59.3929 35.0631 59.7635 35.375 60.2014C35.6836 60.6376 35.8526 61.1129 35.8821 61.6273C35.8843 61.6697 35.8854 61.712 35.8854 61.7545C35.8854 62.2259 35.7519 62.7037 35.4849 63.1878ZM146.491 63.2345C146.224 62.7509 146.091 62.2793 146.091 61.8197Q146.091 61.7429 146.096 61.6665C146.134 61.1601 146.312 60.6928 146.629 60.2647C146.946 59.8365 147.375 59.471 147.916 59.1683C148.478 58.8715 149.025 58.7082 149.557 58.6783C150.095 58.6499 150.587 58.7595 151.032 59.0071C151.478 59.2548 151.847 59.644 152.14 60.1749C152.403 60.6508 152.534 61.1243 152.534 61.5955C152.534 61.6791 152.53 61.7627 152.521 61.8462C152.468 62.4033 152.239 62.8817 151.833 63.2814L151.093 62.559C151.342 62.2789 151.483 61.966 151.515 61.6203Q151.523 61.5378 151.523 61.4561Q151.523 61.3882 151.518 61.3209Q151.488 60.9637 151.298 60.6201C151.097 60.2563 150.846 60.0032 150.544 59.8606C150.246 59.7162 149.915 59.6683 149.551 59.7169C149.191 59.7638 148.817 59.8906 148.429 60.0973C147.838 60.427 147.433 60.8242 147.213 61.2888C147.122 61.4868 147.076 61.6903 147.076 61.8993C147.076 62.1825 147.16 62.4759 147.328 62.7795C147.519 63.1268 147.758 63.3721 148.042 63.5153C148.331 63.6568 148.659 63.7039 149.028 63.6567L149.283 64.6681C148.684 64.7556 148.144 64.6762 147.665 64.4298C147.186 64.1835 146.795 63.785 146.491 63.2345ZM34.6482 62.7328C34.8238 62.4145 34.9116 62.1096 34.9116 61.8183C34.9116 61.6058 34.8649 61.4005 34.7715 61.2024C34.55 60.7327 34.1455 60.3381 33.558 60.0187C32.954 59.6903 32.3988 59.5652 31.8923 59.6434C31.3825 59.7198 30.9776 60.03 30.6776 60.574Q30.4176 61.0455 30.4176 61.4742C30.4176 61.5251 30.4203 61.5756 30.4258 61.6256C30.4622 61.9564 30.5964 62.2615 30.8284 62.541C31.0604 62.8205 31.3711 63.0661 31.7606 63.2779Q32.6616 63.7678 33.434 63.6509C33.9489 63.5731 34.3536 63.267 34.6482 62.7328ZM32.4494 69.0769L27.6623 67.1075L26.8499 69.0544L26.0052 68.7068L28.0145 63.8915L28.8593 64.2391L28.0469 66.1859L32.834 68.1552L32.4494 69.0769ZM149.218 68.9502C149.044 68.5334 148.958 68.1277 148.958 67.733C148.958 67.6077 148.967 67.4835 148.984 67.3603C149.061 66.8516 149.272 66.3934 149.615 65.9857C149.962 65.5767 150.43 65.2516 151.017 65.0106C151.633 64.7581 152.212 64.6521 152.754 64.6926C153.299 64.7317 153.777 64.9016 154.187 65.2023C154.602 65.5051 154.923 65.9276 155.148 66.4698C155.314 66.8677 155.396 67.25 155.396 67.6168C155.396 67.769 155.382 67.9184 155.354 68.0651C155.258 68.5693 155.009 69.0189 154.608 69.414C154.208 69.8125 153.668 70.1349 152.989 70.3811L152.79 69.9046L152.601 69.4487L151.204 66.0897Q150.416 66.4737 150.102 67.0534C149.978 67.2831 149.916 67.5263 149.916 67.783Q149.916 68.147 150.082 68.5472C150.236 68.9167 150.455 69.2029 150.739 69.4059C151.023 69.6088 151.357 69.7224 151.742 69.7465L151.802 70.7586C151.214 70.745 150.692 70.5752 150.235 70.2493C149.782 69.9254 149.443 69.4924 149.218 68.9502ZM153.337 69.1192C153.805 68.8676 154.129 68.5802 154.31 68.2568C154.429 68.0465 154.488 67.8203 154.488 67.5782C154.488 67.3476 154.434 67.1026 154.326 66.8432C154.089 66.2734 153.725 65.9155 153.232 65.7697C152.863 65.6603 152.438 65.6715 151.958 65.8034L153.337 69.1192ZM25.4617 70.305L31.3047 72.0313L31.0278 72.9552L26.7213 71.6829L30.1166 75.9957L29.88 76.7853L24.037 75.0591L24.3139 74.1351L28.5609 75.3899L25.2267 71.0893L25.4617 70.305ZM158.062 75.7002L152.203 77.3697L151.935 76.4431L156.254 75.2126L151.054 73.3939L150.825 72.602L156.685 70.9325L156.952 71.8591L152.693 73.0726L157.835 74.9137L158.062 75.7002ZM158.094 73.2482C158.053 73.1059 158.032 72.9647 158.032 72.8248C158.032 72.6999 158.048 72.5759 158.081 72.4529C158.151 72.1922 158.277 71.9639 158.459 71.7681C158.645 71.5714 158.875 71.4338 159.15 71.3555L159.374 72.1312C159.182 72.1859 159.038 72.301 158.94 72.4766Q158.862 72.615 158.848 72.7595Q158.845 72.7912 158.845 72.8232Q158.845 72.9229 158.875 73.0256C158.931 73.2195 159.047 73.3634 159.223 73.4571C159.4 73.5544 159.584 73.5757 159.776 73.5211L160 74.2969C159.725 74.3752 159.456 74.3799 159.194 74.3109C158.936 74.2444 158.707 74.1172 158.508 73.929C158.31 73.7445 158.172 73.5175 158.094 73.2482ZM29.274 80.6655C29.1751 81.2249 28.9528 81.6717 28.6071 82.006C28.4942 82.1138 28.3727 82.2102 28.2427 82.2952L31.4653 82.8571L31.2906 83.8452L22.6178 82.333L22.773 81.4553L23.4399 81.5716Q23.3245 81.4361 23.2309 81.287Q23.1576 81.1703 23.0977 81.0453Q23.0736 80.9947 23.0524 80.943Q22.889 80.5449 22.889 80.0797Q22.889 79.8272 22.9371 79.5549C23.0348 79.0029 23.2577 78.5524 23.606 78.2035C23.9512 77.8502 24.3817 77.6085 24.8976 77.4784C25.4135 77.3483 25.9716 77.3356 26.572 77.4403C27.1725 77.545 27.6929 77.7457 28.1332 78.0425Q28.6146 78.367 28.913 78.8136L28.9132 78.8138Q29.0242 78.98 29.1099 79.1631Q29.1529 79.2554 29.1872 79.3509Q29.3213 79.7249 29.3213 80.147C29.3213 80.3142 29.3056 80.487 29.274 80.6655ZM28.3463 80.629C28.368 80.5067 28.3788 80.3892 28.3788 80.2767C28.3788 80.0269 28.3255 79.8012 28.2189 79.5995C28.0643 79.3071 27.8279 79.0667 27.5097 78.8784C27.1878 78.6895 26.8137 78.5579 26.3875 78.4836C25.965 78.4099 25.5719 78.4078 25.2081 78.4771C24.845 78.5428 24.5399 78.6906 24.2929 78.9207C24.0466 79.1471 23.8876 79.4627 23.816 79.8675Q23.7836 80.0508 23.7836 80.2192Q23.7836 80.5502 23.9088 80.8241Q23.9214 80.8515 23.9352 80.8784Q23.9572 80.9222 23.9819 80.9643Q24.2 81.3369 24.6297 81.5856Q25.1024 81.8615 25.7696 81.9778C26.2069 82.0541 26.6087 82.0615 26.9748 82.0002C27.3379 81.9345 27.6405 81.79 27.8825 81.5666C28.1208 81.3426 28.2754 81.0301 28.3463 80.629ZM153.19 82.6846L158.325 81.9994L158.043 79.9109L158.949 79.79L159.648 84.9558L158.742 85.0767L158.459 82.9882L153.324 83.6733L153.19 82.6846ZM28.4633 87.3042C28.4287 87.8711 28.2587 88.34 27.9533 88.711Q27.8568 88.8268 27.7479 88.9297L27.7436 88.9337Q27.6856 88.9883 27.6242 89.0393L30.8901 89.2358L30.829 90.2371L22.0396 89.7083L22.0939 88.8188L22.7698 88.8595C22.6153 88.7149 22.4819 88.5534 22.3698 88.375C22.1462 88.0156 22.0344 87.5948 22.0344 87.1126C22.0344 87.0469 22.0365 86.9801 22.0406 86.9122C22.0748 86.3528 22.245 85.8801 22.5513 85.4943C22.854 85.1045 23.2543 84.816 23.752 84.6288Q24.4986 84.3481 25.4114 84.403C26.0199 84.4396 26.5598 84.5807 27.0312 84.8261C27.5025 85.0716 27.8685 85.4062 28.1292 85.8299C28.356 86.2001 28.4694 86.6262 28.4694 87.108C28.4694 87.1724 28.4674 87.2378 28.4633 87.3042ZM27.5374 87.3721C27.5402 87.326 27.5416 87.2809 27.5416 87.2365C27.5416 86.8963 27.4589 86.6053 27.2936 86.3636C27.1067 86.0903 26.8444 85.878 26.5068 85.7267C26.1655 85.5751 25.7788 85.4863 25.3469 85.4604Q24.7046 85.4217 24.1743 85.5863C23.821 85.6923 23.5347 85.8735 23.3155 86.1298C23.0965 86.3824 22.9745 86.7138 22.9494 87.1241Q22.9452 87.1931 22.9452 87.2595Q22.9452 87.7229 23.15 88.0631L23.152 88.0664Q23.167 88.0911 23.183 88.1151C23.3589 88.384 23.6157 88.5922 23.9535 88.7398C24.2876 88.8872 24.68 88.9744 25.1308 89.0015C25.574 89.0282 25.974 88.9905 26.3308 88.8885Q26.7817 88.7532 27.0825 88.4625Q27.1352 88.4115 27.1833 88.3558C27.3946 88.1065 27.5126 87.7786 27.5374 87.3721ZM153.566 89.4429C153.565 89.4069 153.565 89.3712 153.565 89.3358C153.565 88.786 153.683 88.299 153.919 87.8747C154.174 87.4268 154.535 87.0733 155.002 86.814C155.473 86.5547 156.027 86.4165 156.662 86.3994C157.328 86.3815 157.907 86.4874 158.399 86.7171C158.895 86.9468 159.28 87.2747 159.555 87.7009C159.834 88.1307 159.982 88.6388 159.998 89.2252C159.998 89.2604 159.999 89.2952 159.999 89.3298C159.999 89.8939 159.872 90.3801 159.617 90.7885C159.346 91.2256 158.952 91.5576 158.435 91.7845C157.918 92.0152 157.298 92.1253 156.575 92.1149L156.561 91.5994L156.548 91.1064L156.449 87.4735C155.866 87.5267 155.408 87.6968 155.074 87.9839C154.703 88.3024 154.518 88.7415 154.518 89.3014C154.518 89.3248 154.518 89.3485 154.519 89.3724C154.53 89.7721 154.631 90.1169 154.824 90.4071C155.016 90.6972 155.287 90.9216 155.638 91.0804L155.331 92.0474C154.787 91.8265 154.36 91.4829 154.05 91.0165C153.743 90.5538 153.582 90.0293 153.566 89.4429ZM157.354 91.0592C157.881 90.9897 158.287 90.8359 158.572 90.5979C158.922 90.3089 159.097 89.8942 159.097 89.3535C159.097 89.3303 159.096 89.3068 159.096 89.2831C159.079 88.6668 158.867 88.2034 158.459 87.8929C158.153 87.6598 157.752 87.5199 157.256 87.473L157.354 91.0592ZM28.4282 94.049C28.4324 94.1225 28.4344 94.1951 28.4344 94.2665C28.4344 94.7715 28.3303 95.2249 28.122 95.6267C27.8802 96.0818 27.5296 96.4457 27.0702 96.7184C26.607 96.9913 26.058 97.1455 25.423 97.181C24.758 97.2182 24.1763 97.1292 23.6779 96.9138C23.1757 96.6987 22.7808 96.3821 22.4933 95.9641C22.2017 95.5425 22.0394 95.0389 22.0061 94.4532Q22 94.3455 22 94.2412Q22 93.4755 22.3299 92.8984Q22.3353 92.889 22.3408 92.8796Q22.4334 92.7196 22.5478 92.5771Q22.9105 92.1254 23.4922 91.8496C24.0022 91.604 24.6187 91.476 25.3417 91.4655L25.3709 91.9803L25.3989 92.4727L25.6048 96.1011C26.1857 96.031 26.6389 95.8477 26.9644 95.5511C27.3098 95.2364 27.4825 94.8162 27.4825 94.2906C27.4825 94.2436 27.4811 94.1957 27.4783 94.147C27.4557 93.7479 27.3439 93.4061 27.1431 93.1217Q27.0888 93.0448 27.0269 92.9745L27.0266 92.9741Q26.7455 92.6548 26.3091 92.4723L26.5873 91.4968C27.1379 91.7018 27.575 92.0328 27.8987 92.49C28.2185 92.9436 28.3949 93.4633 28.4282 94.049ZM24.5944 92.5433C24.0695 92.628 23.6681 92.7935 23.3902 93.0398C23.0646 93.3254 22.9018 93.7212 22.9018 94.2272C22.9018 94.2736 22.9032 94.3209 22.9059 94.3692C22.9408 94.9847 23.1665 95.4418 23.583 95.7403Q24.052 96.0765 24.7977 96.1251L24.5944 92.5433ZM151.056 93.1922L159.829 93.9436L159.752 94.8314L159.077 94.7737C159.228 94.9221 159.357 95.0869 159.465 95.2681C159.667 95.6131 159.769 96.0104 159.769 96.4601C159.769 96.5509 159.765 96.6438 159.756 96.7388C159.708 97.2972 159.526 97.7654 159.209 98.1433C158.897 98.5253 158.489 98.8036 157.987 98.978C157.484 99.1525 156.93 99.2138 156.322 99.1617C155.715 99.1097 155.179 98.9551 154.714 98.6977C154.249 98.4404 153.892 98.0966 153.642 97.6665C153.436 97.3109 153.334 96.9079 153.334 96.4576C153.334 96.3683 153.338 96.2772 153.346 96.1842C153.395 95.6183 153.577 95.1539 153.892 94.7908Q153.991 94.6777 154.102 94.5778L154.103 94.5773Q154.164 94.5222 154.229 94.4709L150.969 94.1917L151.056 93.1922ZM156.726 94.5723L156.721 94.5718L156.716 94.5714C156.275 94.5342 155.876 94.5619 155.518 94.6545C155.162 94.7515 154.874 94.9218 154.652 95.1654C154.435 95.4092 154.308 95.7341 154.273 96.1398Q154.265 96.2362 154.265 96.328C154.265 96.6457 154.34 96.9211 154.491 97.1542C154.671 97.4321 154.927 97.651 155.261 97.8108C155.598 97.9709 155.983 98.0695 156.414 98.1064C156.841 98.143 157.233 98.1109 157.589 98.0102C157.945 97.9132 158.236 97.7393 158.462 97.4886C158.687 97.2417 158.818 96.9134 158.853 96.504C158.859 96.4397 158.862 96.3771 158.862 96.316C158.862 96.0055 158.79 95.7359 158.645 95.5073C158.476 95.2341 158.225 95.0194 157.891 94.8633C157.562 94.7081 157.174 94.6111 156.726 94.5723ZM28.9973 100.796L23.8825 101.62L24.2225 103.7L23.3199 103.846L22.479 98.7007L23.3816 98.5552L23.7216 100.635L28.8364 99.8112L28.9973 100.796ZM150.43 99.5654L159.059 101.31L158.88 102.183L158.216 102.049C158.349 102.213 158.458 102.392 158.544 102.584Q158.567 102.635 158.586 102.687Q158.727 103.059 158.727 103.484C158.727 103.674 158.706 103.872 158.664 104.078C158.551 104.627 158.316 105.072 157.959 105.411C157.604 105.755 157.167 105.985 156.648 106.101C156.129 106.217 155.57 106.215 154.973 106.094C154.376 105.974 153.861 105.759 153.429 105.451C152.997 105.142 152.681 104.76 152.483 104.304C152.359 104.019 152.297 103.713 152.297 103.386C152.297 103.197 152.318 103.001 152.36 102.798C152.474 102.241 152.708 101.801 153.063 101.476C153.179 101.371 153.303 101.278 153.435 101.197L150.229 100.548L150.43 99.5654ZM155.905 101.581L155.899 101.58L155.892 101.579C155.459 101.492 155.06 101.474 154.694 101.525C154.33 101.581 154.023 101.718 153.775 101.934C153.531 102.152 153.368 102.46 153.286 102.859C153.258 102.998 153.243 103.131 153.243 103.258C153.243 103.489 153.291 103.7 153.385 103.892C153.532 104.188 153.762 104.435 154.075 104.632C154.391 104.829 154.762 104.971 155.186 105.056C155.606 105.141 155.999 105.154 156.365 105.095C156.729 105.039 157.038 104.899 157.291 104.676C157.544 104.456 157.711 104.145 157.794 103.742C157.822 103.604 157.837 103.471 157.837 103.345Q157.837 103.04 157.727 102.783Q157.715 102.755 157.702 102.728C157.566 102.438 157.341 102.196 157.027 102.003C156.719 101.811 156.345 101.671 155.905 101.581ZM24.3323 107.899L30.1465 106.08L30.4384 106.999L26.1531 108.34L31.3986 110.025L31.648 110.811L25.8338 112.63L25.542 111.711L29.7681 110.388L24.58 108.68L24.3323 107.899ZM155.866 113.27L150.078 111.37L150.383 110.454L154.649 111.855L151.386 107.443L151.646 106.66L157.434 108.56L157.129 109.476L152.922 108.095L156.125 112.493L155.866 113.27ZM24.3649 110.351C24.4137 110.505 24.438 110.658 24.438 110.81C24.438 110.922 24.4247 111.034 24.3981 111.146C24.3354 111.408 24.2156 111.64 24.0385 111.84C23.8578 112.042 23.6311 112.185 23.3583 112.27L23.114 111.501C23.3042 111.441 23.446 111.322 23.5394 111.144Q23.613 111.004 23.6232 110.859Q23.6248 110.836 23.6248 110.813C23.6248 110.741 23.6131 110.668 23.5896 110.594C23.5286 110.401 23.4089 110.261 23.2307 110.171C23.0513 110.079 22.8665 110.062 22.6763 110.122L22.432 109.352C22.7047 109.267 22.9733 109.255 23.2377 109.317C23.4973 109.377 23.7292 109.498 23.9332 109.681C24.1362 109.861 24.28 110.084 24.3649 110.351ZM33.3633 114.414C33.5623 114.854 33.6617 115.284 33.6617 115.705C33.6617 115.803 33.6564 115.9 33.6457 115.996C33.5839 116.507 33.3876 116.971 33.0568 117.389Q32.5555 118.018 31.6853 118.406C31.0777 118.677 30.5023 118.801 29.9593 118.777C29.4128 118.754 28.93 118.599 28.5109 118.31C28.0868 118.02 27.7538 117.608 27.5117 117.073C27.3221 116.653 27.2273 116.249 27.2273 115.859C27.2273 115.733 27.2373 115.608 27.2574 115.484Q27.2868 115.299 27.3438 115.122Q27.5202 114.575 27.9616 114.113C28.3493 113.703 28.8789 113.364 29.5503 113.098L29.7631 113.568L29.9666 114.018L31.466 117.333C31.9832 117.062 32.3404 116.729 32.5375 116.337Q32.6376 116.137 32.6768 115.927Q32.7021 115.791 32.7021 115.65C32.7021 115.393 32.6386 115.124 32.5116 114.843C32.3466 114.478 32.1192 114.199 31.8292 114.005C31.5392 113.81 31.2016 113.707 30.8164 113.694L30.7248 112.685C31.3128 112.681 31.8403 112.834 32.3072 113.146Q32.5301 113.296 32.7188 113.48Q33.117 113.87 33.3633 114.414ZM148.847 114.29L153.575 116.395L154.444 114.472L155.278 114.844L153.13 119.6L152.296 119.229L153.164 117.306L148.436 115.201L148.847 114.29ZM29.2408 114.37C28.7811 114.635 28.4659 114.932 28.295 115.261C28.1895 115.462 28.1367 115.675 28.1367 115.9C28.1367 116.144 28.1984 116.402 28.3217 116.675Q28.604 117.299 29.085 117.568Q29.2542 117.663 29.448 117.714Q30.007 117.862 30.7209 117.642L29.2408 114.37ZM36.2608 120.047Q36.7033 120.796 36.7033 121.519C36.7033 121.547 36.7028 121.575 36.7018 121.603C36.6786 122.11 36.5147 122.582 36.2101 123.019C35.9055 123.457 35.4873 123.834 34.9555 124.153C34.4031 124.465 33.8611 124.645 33.3294 124.69Q32.7835 124.735 32.2955 124.587Q32.0639 124.517 31.8454 124.404C31.3928 124.169 31.0123 123.791 30.704 123.269Q30.2758 122.543 30.2677 121.814Q30.2676 121.8 30.2676 121.786C30.2676 121.727 30.2696 121.668 30.2737 121.609C30.3104 121.051 30.5257 120.566 30.9197 120.155L31.6803 120.855C31.4398 121.142 31.3085 121.459 31.2862 121.806C31.2835 121.845 31.2821 121.884 31.2821 121.922C31.2821 122.224 31.3656 122.516 31.5326 122.799C31.7439 123.157 32.0024 123.403 32.3083 123.537C32.6109 123.672 32.9432 123.711 33.3052 123.651C33.664 123.594 34.0342 123.457 34.4159 123.239C34.9965 122.892 35.3898 122.483 35.596 122.013C35.6756 121.826 35.7154 121.635 35.7154 121.44C35.7154 121.144 35.6229 120.839 35.4379 120.526C35.2361 120.184 34.9907 119.946 34.7017 119.811C34.4094 119.678 34.0797 119.64 33.7125 119.698L33.4275 118.695C34.0242 118.59 34.5657 118.654 35.0519 118.886C35.5381 119.118 35.9411 119.505 36.2608 120.047ZM145.645 120.092C145.951 119.572 146.333 119.193 146.792 118.953C147.25 118.716 147.748 118.618 148.287 118.658C148.825 118.698 149.366 118.875 149.909 119.19C150.461 119.511 150.884 119.895 151.179 120.343C151.473 120.79 151.624 121.27 151.633 121.781C151.633 121.801 151.634 121.82 151.634 121.839C151.634 122.333 151.489 122.825 151.201 123.315C150.893 123.838 150.51 124.219 150.05 124.459Q149.801 124.592 149.534 124.667Q149.072 124.798 148.561 124.757C148.026 124.719 147.487 124.542 146.944 124.228C146.395 123.909 145.971 123.526 145.671 123.08C145.375 122.636 145.219 122.156 145.204 121.641C145.204 121.622 145.203 121.603 145.203 121.583C145.203 121.089 145.351 120.592 145.645 120.092ZM146.469 120.57C146.276 120.898 146.179 121.213 146.179 121.517C146.179 121.715 146.22 121.908 146.302 122.096C146.511 122.572 146.904 122.977 147.482 123.313C148.077 123.658 148.628 123.798 149.137 123.734C149.648 123.672 150.062 123.373 150.377 122.838Q150.663 122.352 150.663 121.906Q150.663 121.849 150.658 121.793Q150.648 121.673 150.621 121.557Q150.537 121.192 150.282 120.867C150.057 120.581 149.754 120.327 149.37 120.105C148.779 119.762 148.225 119.622 147.708 119.686C147.191 119.749 146.778 120.044 146.469 120.57ZM141.439 122.102L148.505 127.319L147.969 128.034L147.426 127.633C147.472 127.821 147.494 128.011 147.494 128.204C147.494 128.221 147.494 128.238 147.494 128.256C147.482 128.736 147.305 129.203 146.963 129.659C146.627 130.109 146.224 130.412 145.755 130.569C145.286 130.73 144.793 130.754 144.273 130.641C143.753 130.527 143.249 130.29 142.759 129.928C142.27 129.567 141.896 129.156 141.637 128.694C141.392 128.258 141.269 127.807 141.269 127.34C141.269 127.313 141.27 127.285 141.271 127.258C141.287 126.767 141.464 126.295 141.803 125.842C142.145 125.386 142.545 125.086 143.005 124.942C143.155 124.895 143.307 124.863 143.462 124.845L140.836 122.907L141.439 122.102ZM40.981 127.292L36.0671 130.875L34.5304 128.797C34.4391 128.673 34.3487 128.535 34.2592 128.382C34.1644 128.229 34.0903 128.081 34.0368 127.94Q33.9497 127.72 33.9342 127.495Q33.9309 127.446 33.9309 127.398C33.9309 127.259 33.951 127.12 33.9914 126.978C34.0798 126.65 34.2893 126.365 34.6199 126.124C34.805 125.989 34.9869 125.9 35.1657 125.858C35.3423 125.813 35.5185 125.805 35.6943 125.834C35.7732 125.846 35.8509 125.866 35.9274 125.894C36.0039 125.922 36.0728 125.955 36.1341 125.994C36.0743 125.875 36.0362 125.738 36.0198 125.583C36.0115 125.523 36.0074 125.464 36.0074 125.405C36.0074 125.228 36.0444 125.058 36.1183 124.893Q36.2628 124.558 36.6587 124.269C36.9923 124.026 37.3274 123.905 37.6638 123.905C37.9972 123.908 38.3084 124.019 38.5974 124.239C38.7177 124.333 38.8362 124.446 38.953 124.578C39.0667 124.713 39.1726 124.847 39.2706 124.979L40.981 127.292ZM39.72 126.96L38.6443 125.506C38.5975 125.442 38.5358 125.371 38.4591 125.293C38.3801 125.211 38.3059 125.143 38.2365 125.087Q38.0586 124.95 37.8691 124.932Q37.8009 124.925 37.7312 124.934C37.5534 124.952 37.3917 125.014 37.2461 125.12C37.0519 125.262 36.9343 125.431 36.8931 125.628C36.8799 125.687 36.8733 125.746 36.8733 125.806C36.8733 125.941 36.9076 126.077 36.9763 126.214C37.0049 126.29 37.0455 126.367 37.0981 126.445C37.1485 126.519 37.1949 126.585 37.2372 126.643L38.2594 128.025L39.72 126.96ZM145.531 126.234L145.528 126.232L145.525 126.229C145.169 125.967 144.815 125.782 144.461 125.674C144.107 125.571 143.771 125.565 143.454 125.657C143.14 125.751 142.86 125.961 142.616 126.288C142.381 126.601 142.264 126.919 142.264 127.241C142.264 127.249 142.264 127.257 142.264 127.265C142.27 127.595 142.372 127.915 142.572 128.225C142.774 128.538 143.049 128.822 143.396 129.078C143.74 129.333 144.09 129.51 144.447 129.61C144.801 129.713 145.14 129.717 145.465 129.621C145.788 129.529 146.072 129.318 146.319 128.988C146.553 128.676 146.67 128.36 146.67 128.04L146.67 128.032L146.67 128.027C146.67 127.708 146.57 127.396 146.369 127.09C146.171 126.786 145.892 126.501 145.531 126.234ZM37.5906 128.512L36.6953 127.302C36.633 127.217 36.5627 127.132 36.4846 127.045C36.4034 126.961 36.3236 126.894 36.245 126.844C36.091 126.743 35.9315 126.704 35.7664 126.727C35.5961 126.75 35.4397 126.813 35.2971 126.917C35.1394 127.032 35.0281 127.168 34.9632 127.327C34.9258 127.411 34.9072 127.498 34.9072 127.588C34.9072 127.666 34.9215 127.747 34.9502 127.83C34.985 127.953 35.0455 128.076 35.1315 128.198C35.2123 128.32 35.265 128.398 35.2895 128.431L36.1346 129.574L37.5906 128.512ZM140.589 136.795L136.117 132.682L136.776 131.975L140.072 135.007L138.948 129.648L139.512 129.043L143.984 133.157L143.324 133.864L140.073 130.874L141.149 136.195L140.589 136.795ZM45.3958 131.92C45.8202 132.349 46.0886 132.815 46.201 133.318C46.2425 133.508 46.2633 133.697 46.2633 133.888C46.2633 134.2 46.2073 134.513 46.0952 134.827C45.9148 135.333 45.6004 135.804 45.152 136.242C44.6955 136.687 44.211 136.991 43.6985 137.156C43.1861 137.32 42.6803 137.339 42.1812 137.213C41.6795 137.09 41.2203 136.817 40.8038 136.396C40.3768 135.964 40.107 135.496 39.9946 134.993C39.9502 134.8 39.928 134.607 39.928 134.413C39.928 134.105 39.9841 133.797 40.0965 133.488C40.2741 132.985 40.5872 132.515 41.0356 132.078C41.4894 131.636 41.9726 131.33 42.4851 131.16C42.9949 130.993 43.502 130.97 44.0065 131.091C44.5083 131.214 44.9714 131.491 45.3958 131.92ZM44.715 132.583C44.2722 132.136 43.7923 131.949 43.2753 132.023C42.7584 132.098 42.2609 132.368 41.783 132.834Q41.0458 133.552 40.939 134.308C40.9283 134.382 40.923 134.454 40.923 134.526C40.923 134.952 41.1102 135.354 41.4846 135.732C41.7824 136.034 42.0961 136.215 42.4255 136.276C42.7549 136.337 43.0879 136.298 43.4244 136.158C43.761 136.019 44.0877 135.795 44.4046 135.486C44.8934 135.009 45.1747 134.515 45.2486 134.003C45.2595 133.928 45.2649 133.854 45.2649 133.78C45.2649 133.353 45.0816 132.954 44.715 132.583ZM135.218 141.589L131.219 137.02L131.952 136.388L134.899 139.755L134.363 134.307L134.99 133.766L138.988 138.335L138.256 138.967L135.349 135.646L135.84 141.052L135.218 141.589ZM52.1114 138.086L48.2367 142.759L44.3801 139.607L48.2548 134.934L49.0305 135.568L45.7621 139.51L48.0674 141.394L51.3357 137.452L52.1114 138.086ZM128.157 139.31L132.556 146.097L129.855 147.823C129.788 147.865 129.707 147.913 129.611 147.965C129.518 148.02 129.423 148.068 129.327 148.106C128.92 148.286 128.529 148.359 128.153 148.324C127.773 148.291 127.423 148.165 127.103 147.948C126.785 147.733 126.509 147.445 126.275 147.084C126.043 146.726 125.895 146.356 125.831 145.975C125.809 145.846 125.798 145.719 125.798 145.592C125.798 145.348 125.839 145.108 125.921 144.871C126.045 144.516 126.272 144.194 126.603 143.902C126.68 143.835 126.762 143.769 126.85 143.704C126.938 143.639 127.015 143.586 127.081 143.543L128.937 142.357L127.312 139.85L128.157 139.31ZM60.6871 143.512L57.5607 148.708L56.8193 148.268L57.2584 143.058L52.8458 145.911L52.1044 145.472L55.2309 140.275L56.0643 140.77L54.0119 144.181L57.7313 141.758L58.1868 142.029L57.8012 146.429L59.8537 143.017L60.6871 143.512ZM129.453 143.154L127.626 144.322C127.566 144.36 127.5 144.407 127.428 144.461C127.353 144.518 127.286 144.577 127.226 144.637C127.041 144.827 126.922 145.031 126.872 145.25C126.846 145.361 126.833 145.471 126.833 145.581C126.833 145.693 126.847 145.804 126.874 145.915C126.928 146.138 127.017 146.344 127.139 146.532C127.261 146.721 127.412 146.884 127.591 147.023C127.773 147.165 127.977 147.259 128.204 147.305C128.427 147.353 128.664 147.331 128.912 147.238C128.994 147.213 129.076 147.176 129.157 147.129C129.237 147.087 129.307 147.046 129.367 147.008L131.195 145.84L129.453 143.154ZM119.785 144.169L120.271 145.156C120.615 144.91 120.985 144.751 121.381 144.679C121.774 144.609 122.166 144.628 122.559 144.737C122.95 144.851 123.321 145.062 123.67 145.371C124.019 145.68 124.32 146.091 124.572 146.604C124.827 147.121 124.97 147.611 125.001 148.075C125.007 148.159 125.01 148.241 125.01 148.322C125.01 148.691 124.949 149.03 124.826 149.339C124.675 149.72 124.45 150.043 124.154 150.308C123.855 150.578 123.502 150.772 123.096 150.89L123.356 151.419L122.459 151.855L122.198 151.326C121.854 151.572 121.484 151.729 121.086 151.798C120.69 151.87 120.295 151.847 119.903 151.73C119.508 151.618 119.135 151.406 118.785 151.094C118.436 150.785 118.134 150.372 117.879 149.855C117.626 149.341 117.484 148.853 117.453 148.39C117.448 148.311 117.445 148.234 117.445 148.158C117.445 147.785 117.509 147.442 117.636 147.128C117.787 146.755 118.013 146.436 118.313 146.169C118.613 145.903 118.967 145.71 119.374 145.592L118.887 144.605L119.785 144.169ZM64.229 145.009C64.7746 145.252 65.1976 145.585 65.4978 146.006C65.7931 146.429 65.9567 146.905 65.9886 147.436C65.9917 147.492 65.9933 147.547 65.9933 147.603C65.9933 148.086 65.8764 148.585 65.6426 149.101C65.3692 149.704 65.0214 150.175 64.5992 150.515C64.1754 150.858 63.7104 151.06 63.2042 151.121C62.6931 151.183 62.1681 151.094 61.6294 150.853C61.07 150.603 60.6527 150.263 60.3773 149.833C60.1163 149.429 59.9859 148.968 59.9859 148.451C59.9859 148.415 59.9865 148.38 59.9877 148.344C60.0033 147.781 60.1731 147.179 60.4971 146.537L60.9706 146.749L61.4236 146.951L64.7613 148.442Q64.9585 147.919 64.9585 147.471C64.9585 147.303 64.9379 147.143 64.8966 146.991C64.7636 146.501 64.4243 146.135 63.8787 145.891C63.5115 145.727 63.1545 145.668 62.8078 145.713C62.461 145.759 62.1394 145.904 61.8429 146.149L61.0994 145.454C61.5364 145.063 62.0338 144.831 62.5916 144.756C63.1445 144.684 63.6902 144.768 64.229 145.009ZM120.685 145.997L122.689 150.065C123.023 149.961 123.291 149.803 123.493 149.593C123.694 149.387 123.831 149.146 123.904 148.87C123.948 148.702 123.97 148.527 123.97 148.344Q123.97 148.174 123.944 147.995C123.9 147.684 123.8 147.371 123.645 147.055C123.491 146.743 123.305 146.476 123.086 146.253C122.868 146.031 122.629 145.866 122.371 145.758C122.109 145.652 121.836 145.617 121.552 145.651C121.263 145.687 120.975 145.802 120.685 145.997ZM119.788 146.433C119.452 146.542 119.183 146.697 118.981 146.899C118.78 147.105 118.641 147.341 118.563 147.607C118.512 147.782 118.486 147.965 118.486 148.156C118.486 148.257 118.493 148.359 118.508 148.464C118.55 148.772 118.647 149.079 118.797 149.384C118.949 149.693 119.136 149.96 119.356 150.186C119.578 150.415 119.821 150.586 120.086 150.699C120.352 150.815 120.631 150.861 120.92 150.836C121.21 150.812 121.5 150.7 121.792 150.501L119.788 146.433ZM70.9686 147.606C71.4004 147.749 71.7363 147.948 71.9764 148.201Q72.2696 148.519 72.3842 148.893L72.3846 148.894Q72.4076 148.969 72.4234 149.047Q72.4545 149.209 72.4555 149.371L72.4555 149.381C72.4555 149.577 72.4224 149.774 72.3562 149.97C72.2547 150.271 72.1098 150.513 71.9216 150.694C71.7286 150.879 71.5023 151.008 71.2428 151.084C70.9821 151.162 70.6911 151.196 70.3698 151.184C70.07 151.167 69.7416 151.128 69.3847 151.069C69.023 151.012 68.6595 150.948 68.2943 150.878C68.0629 150.833 67.841 150.791 67.6287 150.752C67.5571 150.983 67.5213 151.193 67.5213 151.382C67.5213 151.551 67.5501 151.703 67.6077 151.838C67.7394 152.153 68.0693 152.399 68.5974 152.574C68.9471 152.691 69.2809 152.713 69.5987 152.641C69.9117 152.572 70.1815 152.378 70.408 152.059L71.2213 152.631C70.9125 153.088 70.5099 153.393 70.0135 153.547C69.5171 153.702 68.9423 153.67 68.2893 153.453C67.7647 153.279 67.3468 153.035 67.0354 152.723C66.7192 152.413 66.5424 152.043 66.5048 151.613C66.4978 151.549 66.4943 151.484 66.4943 151.419Q66.4943 151.205 66.5449 150.982C66.5927 150.77 66.6549 150.55 66.7313 150.323L67.9281 146.773L68.7738 147.054L68.4725 147.948C68.7639 147.72 69.0814 147.567 69.4248 147.489C69.8938 147.381 70.4084 147.42 70.9686 147.606ZM61.1158 147.692C61.0087 148.015 60.9552 148.309 60.9552 148.572C60.9552 148.718 60.9715 148.855 61.0043 148.982C61.119 149.439 61.4407 149.786 61.9691 150.022C62.5353 150.275 63.0478 150.287 63.5066 150.057C63.8511 149.885 64.1524 149.588 64.4106 149.165L61.1158 147.692ZM70.5572 148.35C70.2146 148.236 69.8981 148.198 69.6077 148.235C69.3125 148.275 69.0548 148.369 68.8345 148.516C68.6129 148.667 68.439 148.854 68.3126 149.076C68.1993 149.235 68.1045 149.422 68.0281 149.637C67.9834 149.757 67.945 149.861 67.913 149.95Q68.2207 150.008 68.5202 150.066C68.8331 150.127 69.1311 150.179 69.4143 150.222C69.6962 150.268 69.9544 150.297 70.1888 150.308C70.3626 150.31 70.5322 150.296 70.6976 150.264C70.8595 150.231 71.0042 150.167 71.1316 150.071C71.2543 149.978 71.3461 149.841 71.407 149.661C71.4401 149.562 71.4567 149.461 71.4567 149.358C71.4567 149.298 71.451 149.237 71.4397 149.175C71.4054 149.006 71.3193 148.849 71.1815 148.705C71.04 148.56 70.8319 148.441 70.5572 148.35ZM76.4265 149.291L75.2372 154.298L77.3029 154.782L77.093 155.666L71.9837 154.47L72.1936 153.586L74.2593 154.069L75.4486 149.062L76.4265 149.291ZM104.392 149.552L105.729 157.512L102.561 158.037C102.483 158.05 102.39 158.062 102.281 158.072C102.173 158.086 102.067 158.092 101.964 158.091C101.518 158.096 101.13 158.009 100.798 157.829C100.463 157.65 100.191 157.397 99.9841 157.072C99.7774 156.75 99.6385 156.377 99.5673 155.953Q99.5218 155.682 99.5218 155.423C99.5218 155.195 99.5483 154.974 99.6015 154.76Q99.6694 154.481 99.8003 154.236L99.8006 154.236Q99.9309 153.992 100.124 153.782C100.379 153.504 100.716 153.297 101.135 153.159C101.233 153.128 101.335 153.1 101.441 153.075C101.548 153.049 101.64 153.03 101.718 153.018L103.895 152.657L103.401 149.716L104.392 149.552ZM110.567 150.108C110.823 150.031 111.073 150.019 111.318 150.074C111.56 150.129 111.774 150.238 111.962 150.4C112.147 150.566 112.279 150.776 112.357 151.03C112.401 151.174 112.423 151.316 112.423 151.456C112.423 151.562 112.411 151.667 112.385 151.771C112.322 152.013 112.205 152.223 112.035 152.399C111.863 152.581 111.649 152.71 111.394 152.788Q111.196 152.848 110.998 152.849L110.998 152.849Q110.839 152.849 110.681 152.811C110.444 152.758 110.235 152.648 110.053 152.48C109.868 152.314 109.736 152.104 109.658 151.85C109.614 151.706 109.592 151.564 109.592 151.424C109.592 151.318 109.604 151.213 109.63 151.109C109.687 150.872 109.798 150.665 109.963 150.486C110.128 150.306 110.33 150.181 110.567 150.108ZM82.0176 150.108C82.6179 150.189 83.1177 150.394 83.517 150.723C83.9125 151.052 84.1951 151.471 84.3646 151.98C84.4777 152.32 84.5343 152.684 84.5343 153.072C84.5343 153.266 84.5202 153.465 84.492 153.671C84.4058 154.301 84.211 154.836 83.9075 155.278C83.604 155.72 83.2161 156.042 82.7439 156.246C82.2711 156.454 81.7402 156.518 81.151 156.439C80.547 156.357 80.0453 156.152 79.646 155.823C79.2462 155.497 78.9635 155.08 78.7976 154.571C78.6841 154.234 78.6273 153.871 78.6273 153.483Q78.6273 153.194 78.6695 152.886C78.7552 152.26 78.9481 151.724 79.2484 151.278C79.5482 150.836 79.9347 150.509 80.408 150.298C80.8807 150.09 81.4173 150.027 82.0176 150.108ZM95.7962 150.547C96.2506 150.518 96.637 150.576 96.9554 150.721C97.2702 150.87 97.5152 151.075 97.6903 151.338C97.8616 151.6 97.9575 151.894 97.9782 152.218C97.9814 152.269 97.983 152.319 97.983 152.368C97.983 152.623 97.9388 152.851 97.8502 153.052C97.7412 153.294 97.5808 153.499 97.369 153.666C97.1574 153.836 96.9004 153.976 96.5982 154.085C96.314 154.181 95.9953 154.269 95.642 154.347C95.2853 154.429 94.9244 154.506 94.5595 154.578Q94.2126 154.646 93.8951 154.71C93.9357 155.167 94.0665 155.505 94.2874 155.724C94.5291 155.967 94.9278 156.071 95.4837 156.036C95.8517 156.013 96.1694 155.909 96.4366 155.724C96.7003 155.542 96.8766 155.262 96.9656 154.882L97.9358 155.107C97.823 155.646 97.5659 156.08 97.1645 156.408C96.7631 156.736 96.2187 156.922 95.5315 156.965C94.9794 157 94.4999 156.931 94.093 156.758C93.6826 156.589 93.3784 156.312 93.1805 155.928C93.0823 155.747 93.0149 155.547 92.9784 155.328C92.9421 155.114 92.9163 154.887 92.9012 154.648L92.6634 150.912L93.5535 150.856L93.6133 151.797C93.7968 151.476 94.0329 151.216 94.3215 151.015C94.715 150.74 95.2065 150.584 95.7962 150.547ZM88.7306 150.669C89.3059 150.692 89.7924 150.832 90.1901 151.089C90.5878 151.349 90.8912 151.72 91.1004 152.202C91.3097 152.684 91.4156 153.269 91.4181 153.957Q91.4187 154.006 91.4187 154.055C91.4187 154.346 91.4026 154.663 91.3705 155.004C91.331 155.384 91.277 155.749 91.2084 156.098C91.1361 156.447 91.0508 156.733 90.9527 156.958C90.8417 157.227 90.6901 157.474 90.4978 157.7C90.3016 157.929 90.0843 158.116 89.8458 158.261Q89.4821 158.489 89.0374 158.609C88.7409 158.688 88.4321 158.747 88.1107 158.785C87.7855 158.826 87.4605 158.86 87.1357 158.886C86.8109 158.916 86.5008 158.954 86.2056 159L86.135 158.1C86.3434 158.063 86.5892 158.032 86.8725 158.008C87.1556 157.987 87.4501 157.962 87.7562 157.931C88.0585 157.901 88.3501 157.853 88.631 157.787C88.9079 157.726 89.1483 157.635 89.352 157.515C89.6515 157.349 89.8862 157.094 90.0563 156.748C90.2225 156.406 90.3301 156.019 90.3789 155.587C90.1333 155.938 89.8215 156.19 89.4433 156.346C89.0652 156.501 88.6655 156.572 88.2443 156.557C87.699 156.539 87.2333 156.396 86.8472 156.128C86.461 155.865 86.1702 155.509 85.9748 155.061Q85.7028 154.449 85.7028 153.693Q85.7028 153.619 85.7054 153.543C85.7261 152.946 85.8646 152.427 86.1208 151.987C86.377 151.547 86.7294 151.212 87.1779 150.98C87.6227 150.749 88.1403 150.645 88.7306 150.669ZM81.8891 151.046C81.2627 150.962 80.7682 151.106 80.4057 151.48C80.0432 151.853 79.8168 152.369 79.7266 153.028C79.7019 153.209 79.6895 153.381 79.6895 153.545C79.6895 153.996 79.7829 154.383 79.9697 154.707C80.2239 155.152 80.6605 155.417 81.2795 155.5C81.7008 155.557 82.0605 155.509 82.3586 155.357C82.6566 155.205 82.8956 154.972 83.0754 154.657C83.2553 154.342 83.3751 153.966 83.4349 153.529C83.4592 153.351 83.4714 153.181 83.4714 153.019C83.4714 152.566 83.3766 152.175 83.187 151.844C82.9296 151.394 82.4969 151.128 81.8891 151.046ZM95.6971 151.39C95.3365 151.412 95.0289 151.495 94.774 151.639C94.5157 151.786 94.3124 151.969 94.1642 152.188C94.0163 152.411 93.9258 152.648 93.8929 152.901C93.8571 153.054 93.8391 153.22 93.8391 153.397C93.8391 153.44 93.8402 153.483 93.8423 153.528C93.8462 153.655 93.8503 153.766 93.8544 153.861C94.0589 153.82 94.2611 153.78 94.461 153.742C94.7739 153.681 95.0696 153.617 95.3482 153.551C95.627 153.489 95.8771 153.419 96.0984 153.341C96.2603 153.279 96.4119 153.202 96.5531 153.111C96.6906 153.02 96.8003 152.906 96.8821 152.77C96.9499 152.655 96.9839 152.519 96.9839 152.361C96.9839 152.337 96.9831 152.312 96.9814 152.286C96.971 152.122 96.9197 151.968 96.8276 151.824C96.7317 151.68 96.5926 151.568 96.4101 151.485C96.2239 151.403 95.9863 151.372 95.6971 151.39ZM88.6357 151.613C88.0453 151.593 87.5915 151.759 87.2743 152.111Q87.2573 152.13 87.2408 152.149Q86.7972 152.677 86.767 153.551C86.7655 153.592 86.7648 153.633 86.7648 153.673C86.7648 154.236 86.9066 154.688 87.1902 155.03C87.4937 155.399 87.9313 155.593 88.5029 155.613C89.0821 155.633 89.5321 155.468 89.8529 155.12C90.1698 154.776 90.339 154.294 90.3604 153.674C90.3619 153.632 90.3626 153.59 90.3626 153.549C90.3626 152.984 90.2246 152.531 89.9487 152.191C89.6525 151.826 89.2149 151.633 88.6357 151.613ZM104.052 153.591L101.908 153.946C101.838 153.958 101.759 153.975 101.671 153.997C101.579 154.02 101.494 154.047 101.416 154.079C101.169 154.18 100.979 154.322 100.846 154.503C100.709 154.688 100.621 154.892 100.582 155.115C100.563 155.229 100.553 155.344 100.553 155.457C100.553 155.567 100.562 155.677 100.581 155.785C100.618 156.007 100.691 156.216 100.801 156.414C100.911 156.615 101.061 156.782 101.251 156.913C101.437 157.045 101.663 157.118 101.928 157.131C102.014 157.139 102.103 157.138 102.196 157.126C102.287 157.119 102.367 157.109 102.438 157.097L104.581 156.742L104.052 153.591Z"/><path id="Vector 1" stroke="#fff" stroke-linecap="round" stroke-width="6.000000" d="M79 86.6815C79 87.4973 80.3944 92.1533 81.3451 95.698C82.2036 98.8991 83.1056 100.621 83.5158 101.854C83.8684 102.913 85.2113 98.0681 89.831 92.2201C94.9014 86.9769 99.6408 82.7078 102.28 80.8914C103.292 80.2356 103.641 80.1196 104 80"/></svg>